<?xml version="1.0" encoding="UTF-8" standalone="no"?>
<!DOCTYPE svg PUBLIC "-//W3C//DTD SVG 1.1//EN" "http://www.w3.org/Graphics/SVG/1.1/DTD/svg11.dtd">
<svg version="1.1" xmlns="http://www.w3.org/2000/svg" xmlns:xlink="http://www.w3.org/1999/xlink" preserveAspectRatio="xMidYMid meet" viewBox="0 0 1200 800" width="1200" height="800"><defs><path d="M957.51 391.8C947.51 391.8 939.39 383.68 939.39 373.69C939.39 373.69 939.39 373.69 939.39 373.69C939.39 363.69 947.51 355.57 957.51 355.57C957.51 355.57 1089.63 355.57 1089.63 355.57C1099.62 355.57 1107.74 363.69 1107.74 373.69C1107.74 373.69 1107.74 373.69 1107.74 373.69C1107.74 383.68 1099.62 391.8 1089.63 391.8C1089.63 391.8 957.51 391.8 957.51 391.8Z" id="ct8pJDaJd"></path><path d="M603.41 394.72C605.12 394.72 606.51 397 606.51 399.81C606.51 399.81 606.51 643.97 606.51 643.97C606.51 646.77 605.12 649.05 603.41 649.05C603.41 649.05 603.41 649.05 603.41 649.05C601.7 649.05 600.31 646.77 600.31 643.97C600.31 643.97 600.31 399.81 600.31 399.81C600.31 397 601.7 394.72 603.41 394.72C603.41 394.72 603.41 394.72 603.41 394.72Z" id="onYf7L0Zo"></path><path d="M936.52 293.98C926.52 293.98 918.4 285.87 918.4 275.87C918.4 275.87 918.4 275.87 918.4 275.87C918.4 265.87 926.52 257.75 936.52 257.75C936.52 257.75 1068.64 257.75 1068.64 257.75C1078.64 257.75 1086.75 265.87 1086.75 275.87C1086.75 275.87 1086.75 275.87 1086.75 275.87C1086.75 285.87 1078.64 293.98 1068.64 293.98C1068.64 293.98 936.52 293.98 936.52 293.98Z" id="a1OPtZUBUz"></path><path d="M921.15 356.75C911.16 356.75 903.04 348.63 903.04 338.63C903.04 338.63 903.04 338.63 903.04 338.63C903.04 328.64 911.16 320.52 921.15 320.52C921.15 320.52 1053.27 320.52 1053.27 320.52C1063.27 320.52 1071.39 328.64 1071.39 338.63C1071.39 338.63 1071.39 338.63 1071.39 338.63C1071.39 348.63 1063.27 356.75 1053.27 356.75C1053.27 356.75 921.15 356.75 921.15 356.75Z" id="b2fZ279Tn"></path><path d="M852.34 545.9C842.35 545.9 834.23 537.79 834.23 527.79C834.23 527.79 834.23 527.79 834.23 527.79C834.23 517.79 842.35 509.68 852.34 509.68C852.34 509.68 984.46 509.68 984.46 509.68C994.46 509.68 1002.58 517.79 1002.58 527.79C1002.58 527.79 1002.58 527.79 1002.58 527.79C1002.58 537.79 994.46 545.9 984.46 545.9C984.46 545.9 852.34 545.9 852.34 545.9Z" id="b1UYVk4GY5"></path><path d="M882.63 566.86C872.64 566.86 864.52 558.74 864.52 548.74C864.52 548.74 864.52 548.74 864.52 548.74C864.52 538.75 872.64 530.63 882.63 530.63C882.63 530.63 1014.75 530.63 1014.75 530.63C1024.75 530.63 1032.87 538.75 1032.87 548.74C1032.87 548.74 1032.87 548.74 1032.87 548.74C1032.87 558.74 1024.75 566.86 1014.75 566.86C1014.75 566.86 882.63 566.86 882.63 566.86Z" id="b29YVwoRsJ"></path><path d="M802.76 660.53C785.26 660.53 771.05 646.32 771.05 628.82C771.05 628.82 771.05 628.82 771.05 628.82C771.05 611.32 785.26 597.11 802.76 597.11C802.76 597.11 1034.05 597.11 1034.05 597.11C1051.55 597.11 1065.76 611.32 1065.76 628.82C1065.76 628.82 1065.76 628.82 1065.76 628.82C1065.76 646.32 1051.55 660.53 1034.05 660.53C1034.05 660.53 802.76 660.53 802.76 660.53Z" id="c1jJVCQ5Vr"></path><path d="M263.48 610.67C273.48 610.67 281.6 618.78 281.6 628.78C281.6 628.78 281.6 628.78 281.6 628.78C281.6 638.78 273.48 646.9 263.48 646.9C263.48 646.9 131.36 646.9 131.36 646.9C121.36 646.9 113.25 638.78 113.25 628.78C113.25 628.78 113.25 628.78 113.25 628.78C113.25 618.78 121.36 610.67 131.36 610.67C131.36 610.67 263.48 610.67 263.48 610.67Z" id="a1U1J1rAb"></path><path d="M242.49 512.85C252.49 512.85 260.61 520.97 260.61 530.96C260.61 530.96 260.61 530.96 260.61 530.96C260.61 540.96 252.49 549.08 242.49 549.08C242.49 549.08 110.37 549.08 110.37 549.08C100.38 549.08 92.26 540.96 92.26 530.96C92.26 530.96 92.26 530.96 92.26 530.96C92.26 520.97 100.38 512.85 110.37 512.85C110.37 512.85 242.49 512.85 242.49 512.85Z" id="a27ebQc0VN"></path><path d="M278.85 547.9C288.84 547.9 296.96 556.02 296.96 566.02C296.96 566.02 296.96 566.02 296.96 566.02C296.96 576.02 288.84 584.13 278.85 584.13C278.85 584.13 146.73 584.13 146.73 584.13C136.73 584.13 128.61 576.02 128.61 566.02C128.61 566.02 128.61 566.02 128.61 566.02C128.61 556.02 136.73 547.9 146.73 547.9C146.73 547.9 278.85 547.9 278.85 547.9Z" id="ebeTc2Q2P"></path><path d="M347.66 358.75C357.65 358.75 365.77 366.86 365.77 376.86C365.77 376.86 365.77 376.86 365.77 376.86C365.77 386.86 357.65 394.97 347.66 394.97C347.66 394.97 215.54 394.97 215.54 394.97C205.54 394.97 197.42 386.86 197.42 376.86C197.42 376.86 197.42 376.86 197.42 376.86C197.42 366.86 205.54 358.75 215.54 358.75C215.54 358.75 347.66 358.75 347.66 358.75Z" id="e2DaIYnMmQ"></path><path d="M317.37 337.79C327.36 337.79 335.48 345.91 335.48 355.91C335.48 355.91 335.48 355.91 335.48 355.91C335.48 365.9 327.36 374.02 317.37 374.02C317.37 374.02 185.25 374.02 185.25 374.02C175.25 374.02 167.13 365.9 167.13 355.91C167.13 355.91 167.13 355.91 167.13 355.91C167.13 345.91 175.25 337.79 185.25 337.79C185.25 337.79 317.37 337.79 317.37 337.79Z" id="f16UsiqJ4h"></path><path d="M397.24 244.12C414.74 244.12 428.95 258.33 428.95 275.83C428.95 275.83 428.95 275.83 428.95 275.83C428.95 293.33 414.74 307.54 397.24 307.54C397.24 307.54 165.95 307.54 165.95 307.54C148.45 307.54 134.24 293.33 134.24 275.83C134.24 275.83 134.24 275.83 134.24 275.83C134.24 258.33 148.45 244.12 165.95 244.12C165.95 244.12 397.24 244.12 397.24 244.12Z" id="a478d6I6II"></path><path d="M236.26 693.37L261.26 213.05L434.71 168.02L602.43 213.05L750.88 168.02L943.6 213.05L968.6 693.37L775.68 633.33L602.43 693.37L409.71 648.34L236.26 693.37Z" id="d2Apm2jWtu"></path><mask id="maska35zm8GWih" x="226.26" y="158.02" width="752.34" height="545.35" maskUnits="userSpaceOnUse"><rect x="226.26" y="158.02" width="752.34" height="545.35" fill="white"></rect><use xlink:href="#d2Apm2jWtu" opacity="1" fill="black"></use></mask><path d="M602.84 693.8L602.53 213.24L750.16 168.02L763.18 636.61L602.84 693.8Z" id="d1iGUrsr"></path><linearGradient id="gradienta22IrdqjNJ" gradientUnits="userSpaceOnUse" x1="624.18" y1="198.74" x2="688.61" y2="585.95"><stop style="stop-color: #ffffff;stop-opacity: 1" offset="0%"></stop><stop style="stop-color: #e8eff0;stop-opacity: 1" offset="100%"></stop></linearGradient><path d="M801.25 535.86C821.32 535.86 837.59 521.63 837.59 504.06C837.59 486.5 821.32 472.27 801.25 472.27C781.18 472.27 764.91 486.5 764.91 504.06C764.91 521.63 781.18 535.86 801.25 535.86C801.25 535.86 801.25 535.86 801.25 535.86C801.25 535.86 801.25 535.86 801.25 535.86Z" id="czQBAsSpk"></path><path d="M813.72 515.73C822.62 515.73 829.85 522.96 829.85 531.86C829.85 531.86 829.85 531.86 829.85 531.86C829.85 540.77 822.62 548 813.72 548C813.72 548 788.78 548 788.78 548C779.88 548 772.65 540.77 772.65 531.86C772.65 531.86 772.65 531.86 772.65 531.86C772.65 522.96 779.88 515.73 788.78 515.73C788.78 515.73 813.72 515.73 813.72 515.73Z" id="bgqxukFeH"></path><path d="M236.26 693.37L261.26 213.05L434.71 168.02L409.71 648.34L236.26 693.37Z" id="b1VourbJef"></path><linearGradient id="gradientc6chkWCmWN" gradientUnits="userSpaceOnUse" x1="257.9" y1="198.74" x2="322.34" y2="585.95"><stop style="stop-color: #ffffff;stop-opacity: 1" offset="0%"></stop><stop style="stop-color: #e8eff0;stop-opacity: 1" offset="100%"></stop></linearGradient><path d="M428.08 213.52C429.78 213.59 431.06 215.91 430.95 218.7C430.95 218.7 425.19 353.83 425.19 353.83C425.08 356.61 423.6 358.82 421.9 358.75C421.9 358.75 421.9 358.75 421.9 358.75C420.2 358.67 418.92 356.35 419.04 353.56C419.04 353.56 424.79 218.44 424.79 218.44C424.91 215.65 426.38 213.45 428.08 213.52C428.08 213.52 428.08 213.52 428.08 213.52Z" id="b2urIiH8ej"></path><path d="M799.56 746.28C852.3 746.28 895.05 701.43 895.05 646.11C895.05 590.79 852.3 545.95 799.56 545.95C746.81 545.95 704.06 590.79 704.06 646.11C704.06 701.43 746.81 746.28 799.56 746.28C799.56 746.28 799.56 746.28 799.56 746.28C799.56 746.28 799.56 746.28 799.56 746.28Z" id="d2xIUZLka"></path><path d="M800.22 699.04C833.91 699.04 861.22 671.73 861.22 638.04C861.22 604.35 833.91 577.04 800.22 577.04C766.53 577.04 739.22 604.35 739.22 638.04C739.22 671.73 766.53 699.04 800.22 699.04C800.22 699.04 800.22 699.04 800.22 699.04C800.22 699.04 800.22 699.04 800.22 699.04Z" id="a568YwWEmf"></path><path d="M806.56 550.62L810.13 550.98L813.66 551.48L817.15 552.12L820.58 552.89L823.96 553.79L827.29 554.82L830.56 555.98L833.78 557.25L836.92 558.65L840.01 560.16L843.02 561.79L845.96 563.53L848.83 565.38L851.61 567.33L854.32 569.39L856.95 571.54L859.49 573.8L861.94 576.14L864.3 578.58L866.56 581.1L868.73 583.72L870.79 586.41L872.76 589.19L874.61 592.04L876.36 594.96L878 597.96L879.52 601.03L880.92 604.16L882.21 607.35L883.37 610.61L884.41 613.92L885.31 617.28L886.09 620.7L886.73 624.17L887.23 627.68L887.59 631.23L887.81 634.83L887.89 638.46L887.81 642.1L887.59 645.69L887.23 649.25L886.73 652.76L886.09 656.23L885.31 659.64L884.41 663.01L883.37 666.32L882.21 669.58L880.92 672.77L879.52 675.9L878 678.97L876.36 681.96L874.61 684.89L872.76 687.74L870.79 690.52L868.73 693.21L866.56 695.82L864.3 698.35L861.94 700.79L859.49 703.13L856.95 705.38L854.32 707.54L851.61 709.59L848.83 711.55L845.96 713.39L843.02 715.13L840.01 716.76L836.92 718.28L833.78 719.67L830.56 720.95L827.29 722.11L823.96 723.14L820.58 724.04L817.15 724.81L813.66 725.45L810.13 725.95L806.56 726.31L802.94 726.53L799.29 726.6L795.64 726.53L792.02 726.31L788.45 725.95L784.92 725.45L781.43 724.81L778 724.04L774.62 723.14L771.29 722.11L768.01 720.95L764.8 719.67L761.66 718.28L758.57 716.76L755.56 715.13L752.62 713.39L749.75 711.55L746.97 709.59L744.26 707.54L741.63 705.38L739.09 703.13L736.64 700.79L734.28 698.35L732.02 695.82L729.85 693.21L727.79 690.52L725.82 687.74L723.97 684.89L722.22 681.96L720.58 678.97L719.06 675.9L717.66 672.77L716.37 669.58L715.21 666.32L714.17 663.01L713.27 659.64L712.49 656.23L711.85 652.76L711.35 649.25L710.99 645.69L710.77 642.1L710.69 638.46L710.77 634.83L710.99 631.23L711.35 627.68L711.85 624.17L712.49 620.7L713.27 617.28L714.17 613.92L715.21 610.61L716.37 607.35L717.66 604.16L719.06 601.03L720.58 597.96L722.22 594.96L723.97 592.04L725.82 589.19L727.79 586.41L729.85 583.72L732.02 581.1L734.28 578.58L736.64 576.14L739.09 573.8L741.63 571.54L744.26 569.39L746.97 567.33L749.75 565.38L752.62 563.53L755.56 561.79L758.57 560.16L761.66 558.65L764.8 557.25L768.01 555.98L771.29 554.82L774.62 553.79L778 552.89L781.43 552.12L784.92 551.48L788.45 550.98L792.02 550.62L795.64 550.4L799.29 550.33L802.94 550.4L806.56 550.62ZM794.13 576.06L791.59 576.31L789.08 576.67L786.61 577.12L784.16 577.67L781.76 578.31L779.4 579.04L777.07 579.86L774.79 580.77L772.55 581.76L770.37 582.84L768.23 584L766.14 585.23L764.1 586.54L762.12 587.93L760.19 589.39L758.33 590.92L756.53 592.52L754.78 594.19L753.11 595.92L751.5 597.72L749.96 599.57L748.49 601.49L747.1 603.46L745.78 605.48L744.54 607.56L743.38 609.69L742.29 611.87L741.3 614.09L740.38 616.36L739.56 618.67L738.82 621.03L738.18 623.42L737.63 625.84L737.17 628.31L736.82 630.8L736.56 633.33L736.4 635.88L736.35 638.46L736.4 641.04L736.56 643.6L736.82 646.12L737.17 648.62L737.63 651.08L738.18 653.51L738.82 655.9L739.56 658.25L740.38 660.57L741.3 662.83L742.29 665.06L743.38 667.24L744.54 669.37L745.78 671.44L747.1 673.47L748.49 675.44L749.96 677.36L751.5 679.21L753.11 681.01L754.78 682.74L756.53 684.4L758.33 686L760.19 687.53L762.12 688.99L764.1 690.38L766.14 691.69L768.23 692.93L770.37 694.09L772.55 695.16L774.79 696.16L777.07 697.06L779.4 697.88L781.76 698.62L784.16 699.26L786.61 699.8L789.08 700.26L791.59 700.61L794.13 700.87L796.7 701.02L799.29 701.08L801.88 701.02L804.45 700.87L806.99 700.61L809.5 700.26L811.97 699.8L814.41 699.26L816.82 698.62L819.18 697.88L821.51 697.06L823.79 696.16L826.02 695.16L828.21 694.09L830.35 692.93L832.44 691.69L834.48 690.38L836.46 688.99L838.39 687.53L840.25 686L842.05 684.4L843.79 682.74L845.47 681.01L847.08 679.21L848.62 677.36L850.09 675.44L851.48 673.47L852.8 671.44L854.04 669.37L855.2 667.24L856.29 665.06L857.28 662.83L858.2 660.57L859.02 658.25L859.76 655.9L860.4 653.51L860.95 651.08L861.41 648.62L861.76 646.12L862.02 643.6L862.18 641.04L862.23 638.46L862.18 635.88L862.02 633.33L861.76 630.8L861.41 628.31L860.95 625.84L860.4 623.42L859.76 621.03L859.02 618.67L858.2 616.36L857.28 614.09L856.29 611.87L855.2 609.69L854.04 607.56L852.8 605.48L851.48 603.46L850.09 601.49L848.62 599.57L847.08 597.72L845.47 595.92L843.79 594.19L842.05 592.52L840.25 590.92L838.39 589.39L836.46 587.93L834.48 586.54L832.44 585.23L830.35 584L828.21 582.84L826.02 581.76L823.79 580.77L821.51 579.86L819.18 579.04L816.82 578.31L814.41 577.67L811.97 577.12L809.5 576.67L806.99 576.31L804.45 576.06L801.88 575.9L799.29 575.85L796.7 575.9L794.13 576.06Z" id="a2UVvoTliG"></path><path d="M807.1 537.44L810.94 537.83L814.74 538.37L818.48 539.05L822.18 539.88L825.81 540.85L829.39 541.96L832.91 543.2L836.36 544.57L839.74 546.07L843.05 547.7L846.29 549.45L849.45 551.32L852.54 553.31L855.53 555.4L858.44 557.61L861.27 559.93L864 562.35L866.63 564.87L869.16 567.49L871.6 570.21L873.93 573.02L876.15 575.91L878.26 578.89L880.25 581.96L882.13 585.1L883.89 588.33L885.53 591.62L887.04 594.99L888.42 598.42L889.67 601.92L890.78 605.48L891.75 609.1L892.59 612.77L893.28 616.5L893.82 620.27L894.21 624.09L894.44 627.96L894.52 631.86L894.44 635.77L894.21 639.63L893.82 643.45L893.28 647.23L892.59 650.96L891.75 654.63L890.78 658.25L889.67 661.81L888.42 665.3L887.04 668.74L885.53 672.1L883.89 675.4L882.13 678.62L880.25 681.77L878.26 684.83L876.15 687.81L873.93 690.71L871.6 693.52L869.16 696.23L866.63 698.85L864 701.37L861.27 703.79L858.44 706.11L855.53 708.32L852.54 710.42L849.45 712.41L846.29 714.28L843.05 716.03L839.74 717.65L836.36 719.15L832.91 720.53L829.39 721.77L825.81 722.88L822.18 723.85L818.48 724.67L814.74 725.36L810.94 725.9L807.1 726.29L803.22 726.52L799.29 726.6L795.36 726.52L791.48 726.29L787.64 725.9L783.84 725.36L780.1 724.67L776.4 723.85L772.77 722.88L769.19 721.77L765.67 720.53L762.22 719.15L758.84 717.65L755.53 716.03L752.29 714.28L749.13 712.41L746.04 710.42L743.05 708.32L740.14 706.11L737.31 703.79L734.58 701.37L731.95 698.85L729.42 696.23L726.98 693.52L724.65 690.71L722.43 687.81L720.32 684.83L718.33 681.77L716.45 678.62L714.69 675.4L713.05 672.1L711.54 668.74L710.16 665.3L708.91 661.81L707.8 658.25L706.83 654.63L705.99 650.96L705.3 647.23L704.76 643.45L704.37 639.63L704.14 635.77L704.06 631.86L704.14 627.96L704.37 624.09L704.76 620.27L705.3 616.5L705.99 612.77L706.83 609.1L707.8 605.48L708.91 601.92L710.16 598.42L711.54 594.99L713.05 591.62L714.69 588.33L716.45 585.1L718.33 581.96L720.32 578.89L722.43 575.91L724.65 573.02L726.98 570.21L729.42 567.49L731.95 564.87L734.58 562.35L737.31 559.93L740.14 557.61L743.05 555.4L746.04 553.31L749.13 551.32L752.29 549.45L755.53 547.7L758.84 546.07L762.22 544.57L765.67 543.2L769.19 541.96L772.77 540.85L776.4 539.88L780.1 539.05L783.84 538.37L787.64 537.83L791.48 537.44L795.36 537.2L799.29 537.13L803.22 537.2L807.1 537.44ZM793.74 564.78L791.01 565.06L788.32 565.44L785.66 565.93L783.03 566.52L780.45 567.21L777.91 567.99L775.41 568.87L772.96 569.85L770.55 570.92L768.2 572.07L765.9 573.32L763.65 574.64L761.46 576.06L759.33 577.55L757.27 579.12L755.26 580.76L753.32 582.48L751.45 584.27L749.65 586.13L747.92 588.06L746.27 590.06L744.69 592.12L743.19 594.23L741.77 596.41L740.44 598.65L739.19 600.93L738.03 603.27L736.95 605.67L735.97 608.1L735.09 610.59L734.3 613.12L733.6 615.69L733.01 618.3L732.52 620.95L732.14 623.63L731.86 626.34L731.69 629.09L731.64 631.86L731.69 634.64L731.86 637.38L732.14 640.1L732.52 642.78L733.01 645.43L733.6 648.04L734.3 650.61L735.09 653.13L735.97 655.62L736.95 658.06L738.03 660.45L739.19 662.79L740.44 665.08L741.77 667.31L743.19 669.49L744.69 671.61L746.27 673.67L747.92 675.66L749.65 677.59L751.45 679.45L753.32 681.24L755.26 682.96L757.27 684.61L759.33 686.18L761.46 687.67L763.65 689.08L765.9 690.41L768.2 691.65L770.55 692.81L772.96 693.88L775.41 694.85L777.91 695.73L780.45 696.52L783.03 697.21L785.66 697.8L788.32 698.28L791.01 698.67L793.74 698.94L796.5 699.11L799.29 699.16L802.08 699.11L804.84 698.94L807.57 698.67L810.26 698.28L812.92 697.8L815.55 697.21L818.13 696.52L820.67 695.73L823.17 694.85L825.62 693.88L828.03 692.81L830.38 691.65L832.68 690.41L834.93 689.08L837.12 687.67L839.24 686.18L841.31 684.61L843.32 682.96L845.26 681.24L847.13 679.45L848.93 677.59L850.66 675.66L852.31 673.67L853.89 671.61L855.39 669.49L856.81 667.31L858.14 665.08L859.39 662.79L860.55 660.45L861.63 658.06L862.61 655.62L863.49 653.13L864.28 650.61L864.98 648.04L865.57 645.43L866.06 642.78L866.44 640.1L866.72 637.38L866.89 634.64L866.94 631.86L866.89 629.09L866.72 626.34L866.44 623.63L866.06 620.95L865.57 618.3L864.98 615.69L864.28 613.12L863.49 610.59L862.61 608.1L861.63 605.67L860.55 603.27L859.39 600.93L858.14 598.65L856.81 596.41L855.39 594.23L853.89 592.12L852.31 590.06L850.66 588.06L848.93 586.13L847.13 584.27L845.26 582.48L843.32 580.76L841.31 579.12L839.24 577.55L837.12 576.06L834.93 574.64L832.68 573.32L830.38 572.07L828.03 570.92L825.62 569.85L823.17 568.87L820.67 567.99L818.13 567.21L815.55 566.52L812.92 565.93L810.26 565.44L807.57 565.06L804.84 564.78L802.08 564.62L799.29 564.56L796.5 564.62L793.74 564.78Z" id="c5JP3CiWSK"></path><path d="M849.67 650.02L807.26 649.95L788.77 684.34L787.11 645.33L748.91 626.91L791.32 626.98L809.81 592.59L811.47 631.6L849.67 650.02Z" id="e4r596uAlw"></path><path d="M532.8 53.96L535.71 54.26L538.58 54.67L541.42 55.19L544.22 55.82L546.97 56.56L549.68 57.4L552.34 58.34L554.96 59.39L557.52 60.53L560.03 61.77L562.48 63.1L564.87 64.53L567.21 66.04L569.48 67.64L571.68 69.32L573.82 71.08L575.88 72.92L577.88 74.84L579.8 76.84L581.64 78.9L583.4 81.04L585.08 83.25L586.68 85.52L588.19 87.85L589.62 90.24L590.95 92.69L592.19 95.2L593.33 97.76L594.38 100.38L595.32 103.04L596.16 105.75L596.9 108.5L597.53 111.3L598.05 114.14L598.46 117.01L598.76 119.92L598.94 122.86L599 125.83L598.94 128.81L598.76 131.75L598.46 134.66L598.05 137.53L597.53 140.37L596.9 143.16L596.16 145.92L595.32 148.63L594.38 151.29L593.33 153.9L592.19 156.46L590.95 158.97L590.33 160.12L590.34 160.12L590.05 160.64L589.62 161.42L588.71 162.96L526.89 270.08L464.81 162.52L464.16 161.42L463.85 160.86L463.68 160.57L463.69 160.57L462.83 158.97L461.59 156.46L460.44 153.9L459.4 151.29L458.45 148.63L457.61 145.92L456.87 143.16L456.24 140.37L455.72 137.53L455.31 134.66L455.02 131.75L454.84 128.81L454.78 125.83L454.84 122.86L455.02 119.92L455.31 117.01L455.72 114.14L456.24 111.3L456.87 108.5L457.61 105.75L458.45 103.04L459.4 100.38L460.44 97.76L461.59 95.2L462.83 92.69L464.16 90.24L465.58 87.85L467.09 85.52L468.69 83.25L470.37 81.04L472.14 78.9L473.98 76.84L475.9 74.84L477.89 72.92L479.96 71.08L482.1 69.32L484.3 67.64L486.57 66.04L488.9 64.53L491.3 63.1L493.75 61.77L496.26 60.53L498.82 59.39L501.43 58.34L504.1 57.4L506.81 56.56L509.56 55.82L512.36 55.19L515.19 54.67L518.06 54.26L520.97 53.96L523.92 53.78L526.89 53.72L529.86 53.78L532.8 53.96Z" id="c1MRQ8W9yN"></path><path d="M526.89 179.92C555.91 179.92 579.44 156.39 579.44 127.37C579.44 98.35 555.91 74.82 526.89 74.82C497.87 74.82 474.34 98.35 474.34 127.37C474.34 156.39 497.87 179.92 526.89 179.92C526.89 179.92 526.89 179.92 526.89 179.92C526.89 179.92 526.89 179.92 526.89 179.92Z" id="aI4Yg7Hhs"></path><path d="M554.53 113.44L528.48 141.3L528.48 141.3L518.23 152.26L499.24 131.96L509.49 121L518.23 130.34L544.28 102.48L554.53 113.44L554.53 113.44L554.53 113.44Z" id="an8mOgAHg"></path><path d="M789.99 647.25L832.92 670.46L807.86 628.58L789.99 647.25Z" id="a4YaChC6kH"></path><path d="M789.99 647.25L764.93 605.36L807.86 628.58L789.99 647.25Z" id="a1aqwpaAz3"></path><path d="M810.21 649.64C817.59 643.79 818.83 633.07 812.98 625.69C807.13 618.31 796.41 617.07 789.03 622.92C781.65 628.76 780.41 639.49 786.25 646.87C792.1 654.25 802.83 655.49 810.21 649.64C810.21 649.64 810.21 649.64 810.21 649.64C810.21 649.64 810.21 649.64 810.21 649.64Z" id="c7g9B1UIch"></path><path d="M809.3 643.61C815.63 638.59 816.7 629.38 811.68 623.05C806.66 616.72 797.46 615.65 791.12 620.67C784.79 625.69 783.72 634.89 788.74 641.23C793.76 647.56 802.97 648.63 809.3 643.61C809.3 643.61 809.3 643.61 809.3 643.61C809.3 643.61 809.3 643.61 809.3 643.61Z" id="b1ohP3VgtP"></path><path d="M603.46 209.72C605.16 209.72 606.54 211.98 606.54 214.77C606.54 214.77 606.54 350.02 606.54 350.02C606.54 352.81 605.16 355.07 603.46 355.07C603.46 355.07 603.46 355.07 603.46 355.07C601.76 355.07 600.38 352.81 600.38 350.02C600.38 350.02 600.38 214.77 600.38 214.77C600.38 211.98 601.76 209.72 603.46 209.72C603.46 209.72 603.46 209.72 603.46 209.72Z" id="cHv7IjQiV"></path><path d="M752.48 300.83C754.18 300.75 755.66 302.96 755.78 305.75C755.78 305.75 761.74 440.86 761.74 440.86C761.86 443.65 760.58 445.97 758.88 446.05C758.88 446.05 758.88 446.05 758.88 446.05C757.19 446.12 755.71 443.92 755.58 441.13C755.58 441.13 749.63 306.02 749.63 306.02C749.51 303.23 750.78 300.9 752.48 300.83C752.48 300.83 752.48 300.83 752.48 300.83Z" id="a2tAkhVP4m"></path><path d="M533.24 277.92L533.51 278.07L533.76 278.27L533.97 278.52L534.12 278.8L534.2 279.1L534.23 279.41L534.2 279.71L534.12 280.01L533.97 280.29L533.76 280.54L529.52 284.78L533.76 289.02L533.97 289.27L534.12 289.55L534.2 289.85L534.23 290.15L534.2 290.46L534.12 290.76L533.97 291.03L533.76 291.28L533.51 291.49L533.24 291.64L532.94 291.72L532.63 291.75L532.33 291.72L532.03 291.64L531.75 291.49L531.5 291.28L527.26 287.04L523.02 291.28L522.77 291.49L522.49 291.64L522.19 291.72L521.89 291.75L521.58 291.72L521.28 291.64L521 291.49L520.75 291.28L520.55 291.03L520.4 290.76L520.31 290.46L520.29 290.15L520.31 289.85L520.4 289.55L520.55 289.27L520.75 289.02L525 284.78L520.75 280.54L520.55 280.29L520.4 280.01L520.31 279.71L520.29 279.41L520.31 279.1L520.4 278.8L520.55 278.52L520.75 278.27L521 278.07L521.28 277.92L521.58 277.83L521.89 277.81L522.19 277.83L522.49 277.92L522.77 278.07L523.02 278.27L527.26 282.52L531.5 278.27L531.75 278.07L532.03 277.92L532.33 277.83L532.63 277.81L532.94 277.83L533.24 277.92Z" id="b12En9dlN"></path><mask id="maskcRveFs0dN" x="518.29" y="275.81" width="17.95" height="17.95" maskUnits="userSpaceOnUse"><rect x="518.29" y="275.81" width="17.95" height="17.95" fill="white"></rect><use xlink:href="#b12En9dlN" opacity="1" fill="black"></use></mask><path d="M597.63 490.68L597.93 490.81L598.2 491L598.43 491.25L598.61 491.55L598.75 491.88L598.82 492.23L598.84 492.61L598.8 492.99L598.69 493.35L598.53 493.68L598.32 493.95L598.07 494.17L597.8 494.33L597.5 494.42L597.18 494.44L596.86 494.39L582.1 490.06L581.8 489.93L581.53 489.74L581.3 489.49L581.12 489.2L580.98 488.87L580.9 488.51L580.88 488.13L580.93 487.75L581.04 487.39L581.2 487.07L581.41 486.79L581.66 486.57L581.93 486.41L582.23 486.32L582.54 486.3L582.87 486.35L597.63 490.68ZM629.41 482.93L629.68 483.12L629.91 483.37L630.1 483.67L630.24 484.02L630.31 484.39L630.33 484.77L630.28 485.13L630.17 485.48L630.02 485.79L629.81 486.07L629.56 486.29L629.27 486.46L614.95 492.55L614.63 492.64L614.32 492.66L614.01 492.6L613.72 492.47L613.46 492.29L613.23 492.04L613.04 491.74L612.9 491.39L612.83 491.01L612.81 490.64L612.86 490.28L612.97 489.93L613.12 489.62L613.33 489.34L613.58 489.12L613.87 488.95L628.19 482.86L628.51 482.77L628.82 482.75L629.12 482.81L629.41 482.93ZM570.63 482.33L570.93 482.46L571.2 482.65L571.43 482.9L571.61 483.19L571.75 483.52L571.82 483.88L571.84 484.25L571.8 484.64L571.69 485L571.53 485.32L571.32 485.6L571.07 485.81L570.8 485.97L570.5 486.07L570.18 486.09L569.86 486.04L555.1 481.71L554.8 481.58L554.53 481.38L554.3 481.14L554.12 480.84L553.98 480.51L553.9 480.15L553.88 479.78L553.93 479.4L554.04 479.03L554.2 478.71L554.41 478.44L554.66 478.22L554.93 478.06L555.23 477.97L555.54 477.94L555.87 478L570.63 482.33ZM655.8 472.16L656.07 472.35L656.3 472.59L656.49 472.89L656.63 473.24L656.7 473.62L656.72 473.99L656.67 474.36L656.56 474.7L656.41 475.02L656.2 475.29L655.95 475.52L655.66 475.68L641.34 481.77L641.02 481.86L640.71 481.88L640.4 481.82L640.12 481.7L639.85 481.51L639.62 481.26L639.43 480.96L639.29 480.61L639.22 480.24L639.2 479.86L639.25 479.5L639.36 479.15L639.51 478.84L639.72 478.57L639.97 478.34L640.26 478.17L654.58 472.08L654.9 471.99L655.21 471.98L655.52 472.03L655.8 472.16ZM543.44 474.35L543.74 474.48L544.01 474.68L544.24 474.93L544.42 475.22L544.56 475.55L544.63 475.91L544.65 476.28L544.61 476.66L544.5 477.03L544.34 477.35L544.13 477.62L543.88 477.84L543.61 478L543.31 478.09L542.99 478.12L542.67 478.06L527.91 473.73L527.61 473.6L527.34 473.41L527.11 473.16L526.92 472.87L526.79 472.54L526.71 472.18L526.69 471.81L526.74 471.42L526.85 471.06L527.01 470.74L527.22 470.47L527.46 470.25L527.74 470.09L528.04 469.99L528.35 469.97L528.67 470.03L543.44 474.35ZM326.21 463.49L326.49 463.65L326.74 463.86L326.95 464.13L327.11 464.45L327.22 464.82L327.27 465.2L327.25 465.58L327.17 465.93L327.04 466.26L326.86 466.56L326.63 466.81L326.36 467L326.06 467.14L311.32 471.56L311 471.62L310.68 471.6L310.38 471.5L310.11 471.35L309.86 471.13L309.65 470.86L309.49 470.54L309.38 470.17L309.33 469.79L309.35 469.42L309.42 469.06L309.56 468.73L309.74 468.43L309.96 468.18L310.23 467.99L310.54 467.86L325.28 463.43L325.6 463.38L325.91 463.4L326.21 463.49ZM519.07 466.21L519.37 466.34L519.64 466.53L519.87 466.78L520.05 467.07L520.19 467.4L520.27 467.76L520.28 468.13L520.24 468.52L520.13 468.88L519.97 469.2L519.76 469.47L519.51 469.69L519.24 469.85L518.94 469.95L518.62 469.97L518.3 469.91L503.54 465.59L503.24 465.46L502.97 465.26L502.74 465.01L502.56 464.72L502.42 464.39L502.34 464.03L502.33 463.66L502.37 463.28L502.48 462.91L502.64 462.59L502.85 462.32L503.1 462.1L503.37 461.94L503.67 461.85L503.99 461.82L504.31 461.88L519.07 466.21ZM353.37 455.34L353.64 455.5L353.89 455.71L354.1 455.98L354.26 456.3L354.38 456.67L354.42 457.05L354.4 457.43L354.33 457.78L354.2 458.11L354.01 458.41L353.79 458.66L353.52 458.85L353.21 458.99L338.47 463.41L338.15 463.47L337.84 463.45L337.54 463.35L337.26 463.2L337.01 462.98L336.8 462.71L336.64 462.39L336.53 462.02L336.48 461.64L336.5 461.27L336.58 460.91L336.71 460.58L336.89 460.28L337.12 460.03L337.39 459.84L337.69 459.71L352.43 455.28L352.75 455.23L353.07 455.25L353.37 455.34ZM492.07 457.85L492.37 457.98L492.64 458.18L492.87 458.42L493.05 458.72L493.19 459.05L493.27 459.4L493.28 459.78L493.24 460.16L493.13 460.53L492.97 460.85L492.76 461.12L492.51 461.34L492.24 461.5L491.94 461.59L491.62 461.61L491.3 461.56L476.54 457.23L476.24 457.1L475.97 456.91L475.74 456.66L475.56 456.37L475.42 456.04L475.34 455.68L475.33 455.31L475.37 454.92L475.48 454.56L475.64 454.24L475.85 453.96L476.1 453.75L476.37 453.59L476.67 453.49L476.99 453.47L477.31 453.52L492.07 457.85ZM655.22 439.76L655.47 439.9L655.69 440.08L655.89 440.31L656.05 440.57L656.17 440.87L656.25 441.19L656.28 441.53L656.51 459.67L656.49 460.01L656.41 460.34L656.3 460.63L656.15 460.9L655.96 461.14L655.73 461.33L655.49 461.48L655.22 461.57L654.93 461.61L654.64 461.58L654.37 461.5L654.12 461.36L653.89 461.17L653.7 460.95L653.54 460.68L653.42 460.39L653.34 460.07L653.31 459.72L653.08 441.59L653.1 441.24L653.17 440.92L653.29 440.62L653.44 440.35L653.63 440.12L653.85 439.92L654.1 439.78L654.37 439.69L654.66 439.65L654.95 439.68L655.22 439.76ZM381.55 446.38L381.82 446.54L382.07 446.76L382.28 447.03L382.44 447.35L382.55 447.71L382.6 448.1L382.58 448.47L382.51 448.83L382.38 449.16L382.19 449.45L381.97 449.7L381.7 449.9L381.39 450.03L366.65 454.45L366.33 454.51L366.02 454.49L365.72 454.4L365.44 454.24L365.19 454.02L364.98 453.75L364.82 453.43L364.71 453.07L364.66 452.69L364.68 452.31L364.76 451.95L364.89 451.62L365.07 451.33L365.3 451.08L365.57 450.88L365.87 450.75L380.61 446.33L380.93 446.27L381.25 446.29L381.55 446.38ZM464.88 449.88L465.18 450.01L465.45 450.2L465.68 450.45L465.86 450.74L466 451.07L466.07 451.43L466.09 451.81L466.05 452.19L465.94 452.55L465.78 452.87L465.57 453.15L465.32 453.37L465.05 453.53L464.75 453.62L464.43 453.64L464.11 453.59L449.35 449.26L449.05 449.13L448.78 448.94L448.55 448.69L448.36 448.39L448.23 448.06L448.15 447.71L448.13 447.33L448.18 446.95L448.29 446.58L448.45 446.26L448.66 445.99L448.9 445.77L449.18 445.61L449.48 445.52L449.79 445.5L450.11 445.55L464.88 449.88ZM408.7 438.23L408.98 438.39L409.23 438.61L409.43 438.88L409.6 439.2L409.71 439.56L409.76 439.95L409.74 440.32L409.66 440.68L409.53 441.01L409.35 441.3L409.12 441.55L408.85 441.75L408.55 441.88L393.81 446.3L393.49 446.36L393.17 446.34L392.87 446.25L392.59 446.09L392.35 445.87L392.14 445.6L391.97 445.28L391.86 444.92L391.82 444.54L391.83 444.16L391.91 443.8L392.04 443.47L392.22 443.18L392.45 442.93L392.72 442.73L393.03 442.6L407.77 438.18L408.09 438.12L408.4 438.14L408.7 438.23ZM436.07 441.54L436.37 441.67L436.64 441.87L436.87 442.11L437.05 442.41L437.19 442.74L437.27 443.1L437.28 443.47L437.24 443.85L437.13 444.22L436.97 444.54L436.76 444.81L436.51 445.03L436.24 445.19L435.94 445.28L435.62 445.31L435.3 445.25L420.54 440.92L420.24 440.79L419.97 440.6L419.74 440.35L419.56 440.06L419.42 439.73L419.34 439.37L419.33 439L419.37 438.61L419.48 438.25L419.64 437.93L419.85 437.65L420.1 437.44L420.37 437.28L420.67 437.18L420.99 437.16L421.31 437.21L436.07 441.54ZM655.16 406.47L655.41 406.61L655.63 406.79L655.83 407.02L655.99 407.28L656.11 407.58L656.19 407.9L656.22 408.24L656.45 426.38L656.43 426.72L656.36 427.05L656.24 427.35L656.09 427.62L655.9 427.85L655.68 428.04L655.43 428.19L655.16 428.28L654.87 428.32L654.58 428.29L654.31 428.21L654.06 428.07L653.84 427.89L653.64 427.66L653.48 427.4L653.36 427.1L653.28 426.78L653.25 426.44L653.02 408.3L653.04 407.96L653.11 407.63L653.23 407.33L653.38 407.06L653.57 406.83L653.79 406.64L654.04 406.49L654.31 406.4L654.6 406.36L654.89 406.39L655.16 406.47ZM654.72 374.72L654.97 374.86L655.19 375.04L655.39 375.27L655.55 375.53L655.67 375.83L655.75 376.15L655.78 376.49L656.01 394.63L655.99 394.97L655.91 395.3L655.8 395.6L655.65 395.87L655.46 396.1L655.23 396.29L654.99 396.44L654.72 396.53L654.43 396.57L654.14 396.54L653.87 396.46L653.62 396.32L653.39 396.14L653.2 395.91L653.04 395.65L652.92 395.35L652.84 395.03L652.81 394.69L652.58 376.55L652.6 376.21L652.67 375.88L652.79 375.58L652.94 375.31L653.13 375.08L653.35 374.89L653.6 374.74L653.87 374.65L654.16 374.61L654.45 374.64L654.72 374.72ZM654.66 341.43L654.91 341.57L655.13 341.76L655.33 341.98L655.49 342.25L655.61 342.54L655.69 342.86L655.72 343.21L655.95 361.34L655.93 361.69L655.86 362.01L655.74 362.31L655.59 362.58L655.4 362.81L655.18 363.01L654.93 363.15L654.66 363.24L654.37 363.28L654.08 363.25L653.81 363.17L653.56 363.03L653.34 362.85L653.14 362.62L652.98 362.36L652.86 362.06L652.78 361.74L652.75 361.4L652.52 343.26L652.54 342.92L652.61 342.59L652.73 342.3L652.88 342.03L653.07 341.79L653.29 341.6L653.54 341.45L653.81 341.36L654.1 341.32L654.39 341.35L654.66 341.43ZM597.63 348.97L597.93 349.1L598.2 349.29L598.43 349.54L598.61 349.83L598.75 350.16L598.82 350.52L598.84 350.9L598.8 351.28L598.69 351.64L598.53 351.96L598.32 352.24L598.07 352.46L597.8 352.61L597.5 352.71L597.18 352.73L596.86 352.68L582.1 348.35L581.8 348.22L581.53 348.03L581.3 347.78L581.12 347.48L580.98 347.15L580.9 346.8L580.88 346.42L580.93 346.04L581.04 345.67L581.2 345.35L581.41 345.08L581.66 344.86L581.93 344.7L582.23 344.61L582.54 344.59L582.87 344.64L597.63 348.97ZM626.41 340.33L626.68 340.51L626.91 340.76L627.1 341.06L627.24 341.41L627.31 341.79L627.33 342.16L627.28 342.52L627.17 342.87L627.02 343.18L626.81 343.46L626.56 343.68L626.27 343.85L611.95 349.94L611.63 350.03L611.32 350.05L611.01 349.99L610.72 349.87L610.46 349.68L610.23 349.43L610.04 349.13L609.9 348.78L609.83 348.41L609.81 348.03L609.86 347.67L609.97 347.32L610.12 347.01L610.33 346.73L610.58 346.51L610.87 346.34L625.19 340.25L625.51 340.16L625.82 340.14L626.12 340.2L626.41 340.33ZM570.63 340.61L570.93 340.74L571.2 340.94L571.43 341.19L571.61 341.48L571.75 341.81L571.82 342.17L571.84 342.54L571.8 342.92L571.69 343.29L571.53 343.61L571.32 343.88L571.07 344.1L570.8 344.26L570.5 344.35L570.18 344.38L569.86 344.32L555.1 339.99L554.8 339.87L554.53 339.67L554.3 339.42L554.12 339.13L553.98 338.8L553.9 338.44L553.88 338.07L553.93 337.69L554.04 337.32L554.2 337L554.41 336.73L554.66 336.51L554.93 336.35L555.23 336.25L555.54 336.23L555.87 336.29L570.63 340.61ZM652.8 329.55L653.07 329.74L653.3 329.98L653.49 330.28L653.63 330.63L653.7 331.01L653.72 331.38L653.67 331.75L653.56 332.09L653.41 332.41L653.2 332.68L652.95 332.91L652.66 333.07L638.34 339.16L638.02 339.26L637.71 339.27L637.4 339.21L637.12 339.09L636.85 338.9L636.62 338.66L636.43 338.36L636.29 338.01L636.22 337.63L636.2 337.26L636.25 336.89L636.36 336.55L636.51 336.23L636.72 335.96L636.97 335.73L637.26 335.57L651.58 329.48L651.9 329.38L652.21 329.37L652.52 329.43L652.8 329.55ZM543.44 332.64L543.74 332.77L544.01 332.96L544.24 333.21L544.42 333.51L544.56 333.84L544.63 334.19L544.65 334.57L544.61 334.95L544.5 335.32L544.34 335.64L544.13 335.91L543.88 336.13L543.61 336.29L543.31 336.38L542.99 336.4L542.67 336.35L527.91 332.02L527.61 331.89L527.34 331.7L527.11 331.45L526.92 331.16L526.79 330.83L526.71 330.47L526.69 330.09L526.74 329.71L526.85 329.35L527.01 329.03L527.22 328.75L527.46 328.53L527.74 328.38L528.04 328.28L528.35 328.26L528.67 328.31L543.44 332.64ZM527.82 298.2L528.07 298.34L528.29 298.53L528.48 298.76L528.64 299.03L528.76 299.32L528.83 299.65L528.86 299.99L528.86 318.13L528.83 318.47L528.76 318.79L528.64 319.09L528.48 319.36L528.29 319.59L528.07 319.78L527.82 319.92L527.55 320.01L527.26 320.04L526.97 320.01L526.7 319.92L526.45 319.78L526.23 319.59L526.04 319.36L525.88 319.09L525.76 318.79L525.68 318.47L525.66 318.13L525.66 299.99L525.68 299.65L525.76 299.32L525.88 299.03L526.04 298.76L526.23 298.53L526.45 298.34L526.7 298.2L526.97 298.11L527.26 298.08L527.55 298.11L527.82 298.2Z" id="e2M8WSTtJH"></path><linearGradient id="gradienta3br6gsr7r" gradientUnits="userSpaceOnUse" x1="19510.34" y1="184.4" x2="-24700.87" y2="1778.7"><stop style="stop-color: #b2c4cf;stop-opacity: 1" offset="0%"></stop><stop style="stop-color: #b2c4cf;stop-opacity: 0.38" offset="100%"></stop></linearGradient><path d="M420.16 398.35C421.87 398.43 423.16 400.76 423.04 403.57C423.04 403.57 412.66 647.51 412.66 647.51C412.54 650.31 411.06 652.52 409.35 652.45C409.35 652.45 409.35 652.45 409.35 652.45C407.64 652.38 406.35 650.04 406.47 647.24C406.47 647.24 416.85 403.3 416.85 403.3C416.97 400.5 418.45 398.28 420.16 398.35C420.16 398.35 420.16 398.35 420.16 398.35Z" id="cWezIVuNi"></path></defs><g><g><g><use xlink:href="#ct8pJDaJd" opacity="1" fill="#8c1515" fill-opacity="1"></use></g><g><use xlink:href="#onYf7L0Zo" opacity="1" fill="#415a68" fill-opacity="1"></use></g><g><use xlink:href="#a1OPtZUBUz" opacity="1" fill="#8c1515" fill-opacity="1"></use></g><g><use xlink:href="#b2fZ279Tn" opacity="1" fill="#8c1515" fill-opacity="1"></use></g><g><use xlink:href="#b1UYVk4GY5" opacity="1" fill="#8c1515" fill-opacity="1"></use></g><g><use xlink:href="#b29YVwoRsJ" opacity="1" fill="#8c1515" fill-opacity="1"></use></g><g><use xlink:href="#c1jJVCQ5Vr" opacity="1" fill="#8c1515" fill-opacity="1"></use></g><g><use xlink:href="#a1U1J1rAb" opacity="1" fill="#8c1515" fill-opacity="1"></use></g><g><use xlink:href="#a27ebQc0VN" opacity="1" fill="#8c1515" fill-opacity="1"></use></g><g><use xlink:href="#ebeTc2Q2P" opacity="1" fill="#8c1515" fill-opacity="1"></use></g><g><use xlink:href="#e2DaIYnMmQ" opacity="1" fill="#8c1515" fill-opacity="1"></use></g><g><use xlink:href="#f16UsiqJ4h" opacity="1" fill="#8c1515" fill-opacity="1"></use></g><g><use xlink:href="#a478d6I6II" opacity="1" fill="#8c1515" fill-opacity="1"></use></g><g><use xlink:href="#d2Apm2jWtu" opacity="1" fill="#ffffff" fill-opacity="1"></use><g mask="url(#maska35zm8GWih)"><use xlink:href="#d2Apm2jWtu" opacity="1" fill-opacity="0" stroke="#415a68" stroke-width="10" stroke-opacity="1"></use></g></g><g><use xlink:href="#d1iGUrsr" opacity="1" fill="url(#gradienta22IrdqjNJ)"></use></g><g><g><use xlink:href="#czQBAsSpk" opacity="1" fill-opacity="0" stroke="#415968" stroke-width="10" stroke-opacity="1"></use></g></g><g><use xlink:href="#bgqxukFeH" opacity="1" fill="#99b2c0" fill-opacity="1"></use><g><use xlink:href="#bgqxukFeH" opacity="1" fill-opacity="0" stroke="#415968" stroke-width="4" stroke-opacity="1"></use></g></g><g><use xlink:href="#b1VourbJef" opacity="1" fill="url(#gradientc6chkWCmWN)"></use></g><g><use xlink:href="#b2urIiH8ej" opacity="1" fill="#415a68" fill-opacity="1"></use></g><g><use xlink:href="#d2xIUZLka" opacity="1" fill="#698da2" fill-opacity="1"></use><g><use xlink:href="#d2xIUZLka" opacity="1" fill-opacity="0" stroke="#415968" stroke-width="2" stroke-opacity="1"></use></g></g><g><use xlink:href="#a568YwWEmf" opacity="1" fill="#eef2f4" fill-opacity="1"></use></g><g><use xlink:href="#a2UVvoTliG" opacity="1" fill="#698da2" fill-opacity="1"></use><g><use xlink:href="#a2UVvoTliG" opacity="1" fill-opacity="0" stroke="#415968" stroke-width="2" stroke-opacity="1"></use></g></g><g><use xlink:href="#c5JP3CiWSK" opacity="1" fill="#99b2c0" fill-opacity="1"></use><g><use xlink:href="#c5JP3CiWSK" opacity="1" fill-opacity="0" stroke="#415968" stroke-width="2" stroke-opacity="1"></use></g></g><g><use xlink:href="#e4r596uAlw" opacity="1" fill="#d6e0e5" fill-opacity="1"></use><g><use xlink:href="#e4r596uAlw" opacity="1" fill-opacity="0" stroke="#415968" stroke-width="2" stroke-opacity="1"></use></g></g><g><use xlink:href="#c1MRQ8W9yN" opacity="1" fill="#8c1515" fill-opacity="1"></use><g><use xlink:href="#c1MRQ8W9yN" opacity="1" fill-opacity="0" stroke="#415968" stroke-width="3" stroke-opacity="1"></use></g></g><g><use xlink:href="#aI4Yg7Hhs" opacity="1" fill="#ffffff" fill-opacity="1"></use><g><use xlink:href="#aI4Yg7Hhs" opacity="1" fill-opacity="0" stroke="#415968" stroke-width="3" stroke-opacity="1"></use></g></g><g><use xlink:href="#an8mOgAHg" opacity="1" fill="#8c1515" fill-opacity="1"></use><g><use xlink:href="#an8mOgAHg" opacity="1" fill-opacity="0" stroke="#415968" stroke-width="3" stroke-opacity="1"></use></g></g><g><use xlink:href="#a4YaChC6kH" opacity="1" fill="#88d4fe" fill-opacity="1"></use><g><use xlink:href="#a4YaChC6kH" opacity="1" fill-opacity="0" stroke="#415968" stroke-width="3" stroke-opacity="1"></use></g></g><g><use xlink:href="#a1aqwpaAz3" opacity="1" fill="#fe8899" fill-opacity="1"></use><g><use xlink:href="#a1aqwpaAz3" opacity="1" fill-opacity="0" stroke="#415968" stroke-width="3" stroke-opacity="1"></use></g></g><g><use xlink:href="#c7g9B1UIch" opacity="1" fill="#698da2" fill-opacity="1"></use><g><use xlink:href="#c7g9B1UIch" opacity="1" fill-opacity="0" stroke="#415968" stroke-width="2" stroke-opacity="1"></use></g></g><g><use xlink:href="#b1ohP3VgtP" opacity="1" fill="#99b2c0" fill-opacity="1"></use><g><use xlink:href="#b1ohP3VgtP" opacity="1" fill-opacity="0" stroke="#415968" stroke-width="2" stroke-opacity="1"></use></g></g><g><use xlink:href="#cHv7IjQiV" opacity="1" fill="#415a68" fill-opacity="1"></use></g><g><use xlink:href="#a2tAkhVP4m" opacity="1" fill="#415a68" fill-opacity="1"></use></g><g><use xlink:href="#b12En9dlN" opacity="1" fill="#8c1515" fill-opacity="1"></use><g mask="url(#maskcRveFs0dN)"><use xlink:href="#b12En9dlN" opacity="1" fill-opacity="0" stroke="#415968" stroke-width="2" stroke-opacity="1"></use></g></g><g><use xlink:href="#e2M8WSTtJH" opacity="0.8" fill="url(#gradienta3br6gsr7r)"></use></g><g><use xlink:href="#cWezIVuNi" opacity="1" fill="#415a68" fill-opacity="1"></use></g></g></g></svg>